<svg width="20" height="21" viewBox="0 0 20 21" fill="none" xmlns="http://www.w3.org/2000/svg">
<path d="M10 0.5C15.5228 0.5 20 4.97715 20 10.5C20 16.0228 15.5228 20.5 10 20.5C4.47715 20.5 0 16.0228 0 10.5C0 4.97715 4.47715 0.5 10 0.5ZM7.26179 6.89215C7.0182 6.7234 6.68142 6.74751 6.46447 6.96447L6.39215 7.05103C6.2234 7.29461 6.24751 7.63139 6.46447 7.84835L9.11612 10.5L6.46447 13.1517L6.39215 13.2382C6.2234 13.4818 6.24751 13.8186 6.46447 14.0355L6.55103 14.1079C6.79461 14.2766 7.13139 14.2525 7.34835 14.0355L10 11.3839L12.6517 14.0355L12.7382 14.1079C12.9818 14.2766 13.3186 14.2525 13.5355 14.0355L13.6079 13.949C13.7766 13.7054 13.7525 13.3686 13.5355 13.1517L10.8839 10.5L13.5355 7.84835L13.6079 7.76179C13.7766 7.5182 13.7525 7.18142 13.5355 6.96447L13.449 6.89215C13.2054 6.7234 12.8686 6.74751 12.6517 6.96447L10 9.61612L7.34835 6.96447L7.26179 6.89215Z" fill="#FF5F57"/>
</svg>
