<svg width="20" height="21" viewBox="0 0 20 21" fill="none" xmlns="http://www.w3.org/2000/svg">
<path d="M10 0.5C15.5228 0.5 20 4.97715 20 10.5C20 16.0228 15.5228 20.5 10 20.5C4.47715 20.5 0 16.0228 0 10.5C0 4.97715 4.47715 0.5 10 0.5ZM14.198 7.55806C13.9811 7.3411 13.6443 7.31699 13.4007 7.48574L13.3141 7.55806L8.75 12.1225L6.69194 10.0641L6.60538 9.99182C6.3618 9.82308 6.02502 9.84719 5.80806 10.0641C5.5911 10.2811 5.56699 10.6179 5.73574 10.8615L5.80806 10.948L8.30806 13.448L8.39462 13.5203C8.60776 13.668 8.89224 13.668 9.10538 13.5203L9.19194 13.448L14.198 8.44194L14.2703 8.35538C14.4391 8.1118 14.415 7.77502 14.198 7.55806Z" fill="#27C840"/>
</svg>
