<svg width="14" height="14" viewBox="0 0 14 14" fill="none" xmlns="http://www.w3.org/2000/svg">
<path d="M6.15063 0.533021C6.54191 -0.0962936 7.45782 -0.0962934 7.8491 0.533021L9.46545 3.1327C9.60312 3.35411 9.82182 3.51301 10.0749 3.57552L13.0469 4.30942C13.7663 4.48708 14.0493 5.35816 13.5717 5.92476L11.5988 8.26535C11.4307 8.4647 11.3472 8.7218 11.366 8.98185L11.5864 12.0351C11.6397 12.7742 10.8987 13.3126 10.2123 13.0334L7.37655 11.8803C7.13503 11.7821 6.8647 11.7821 6.62318 11.8803L3.78747 13.0334C3.10102 13.3126 2.36003 12.7742 2.41338 12.0351L2.63377 8.98185C2.65254 8.7218 2.56901 8.4647 2.40097 8.26535L0.42801 5.92476C-0.0495925 5.35816 0.233441 4.48708 0.952866 4.30942L3.92478 3.57552C4.17791 3.51301 4.39661 3.35411 4.53428 3.1327L6.15063 0.533021Z" fill="#FFCB02"/>
</svg>
