<svg width="45" height="46" viewBox="0 0 45 46" fill="none" xmlns="http://www.w3.org/2000/svg">
<g clip-path="url(#clip0_241_17269)">
<path d="M45 23C45 10.5736 34.9264 0.5 22.5 0.5C10.0736 0.5 0 10.5736 0 23C0 35.4264 10.0736 45.5 22.5 45.5C34.9264 45.5 45 35.4264 45 23Z" fill="#3D9EF2"/>
<path d="M22.5001 9.5C27.9001 9.5 32.4001 14 32.4001 19.4C32.4001 24.8 22.5001 36.5 22.5001 36.5C22.5001 36.5 12.6001 24.8 12.6001 19.4C12.6001 14 17.1001 9.5 22.5001 9.5Z" fill="white"/>
<path d="M22.4998 22.1002C23.991 22.1002 25.1998 20.8914 25.1998 19.4002C25.1998 17.909 23.991 16.7002 22.4998 16.7002C21.0086 16.7002 19.7998 17.909 19.7998 19.4002C19.7998 20.8914 21.0086 22.1002 22.4998 22.1002Z" fill="#3B1E3B"/>
</g>
<defs>
<clipPath id="clip0_241_17269">
<rect width="45" height="46" fill="white"/>
</clipPath>
</defs>
</svg>
