<svg width="16" height="17" viewBox="0 0 16 17" fill="none" xmlns="http://www.w3.org/2000/svg">
<path d="M7.15112 2.53327C7.5424 1.90395 8.45831 1.90395 8.84959 2.53327L10.4659 5.13294C10.6036 5.35436 10.8223 5.51325 11.0754 5.57576L14.0474 6.30966C14.7668 6.48732 15.0498 7.35841 14.5722 7.925L12.5993 10.2656C12.4312 10.4649 12.3477 10.722 12.3664 10.9821L12.5868 14.0353C12.6402 14.7745 11.8992 15.3128 11.2127 15.0337L8.37704 13.8806C8.13552 13.7824 7.86519 13.7824 7.62367 13.8806L4.78796 15.0337C4.10151 15.3128 3.36052 14.7745 3.41387 14.0353L3.63426 10.9821C3.65303 10.722 3.56949 10.4649 3.40145 10.2656L1.4285 7.925C0.950896 7.35841 1.23393 6.48732 1.95335 6.30966L4.92527 5.57576C5.1784 5.51325 5.3971 5.35436 5.53477 5.13294L7.15112 2.53327Z" fill="#FFCB02"/>
</svg>
