<svg width="88" height="89" viewBox="0 0 88 89" fill="none" xmlns="http://www.w3.org/2000/svg">
<mask id="mask0_219_6122" style="mask-type:alpha" maskUnits="userSpaceOnUse" x="5" y="14" width="62" height="61">
<path d="M66.2138 44.5011C66.2138 61.1879 52.6866 74.7151 35.9998 74.7151C19.3131 74.7151 5.78583 61.1879 5.78583 44.5011C5.78583 27.8144 19.3131 14.2871 35.9998 14.2871C52.6866 14.2871 66.2138 27.8144 66.2138 44.5011Z" fill="#70ACDE"/>
</mask>
<g mask="url(#mask0_219_6122)">
<circle cx="35.9261" cy="44.6701" r="34.5324" fill="#FF8F8F"/>
<ellipse cx="30.8822" cy="39.954" rx="2.03618" ry="5.66299" fill="white"/>
<path d="M32.8476 40.3625C32.8476 38.608 32.455 37.123 31.9251 36.1517C31.6615 35.6687 31.3997 35.3774 31.2015 35.2237C31.0167 35.0805 30.9275 35.0834 30.9187 35.0834C30.9099 35.0834 30.8207 35.0805 30.636 35.2237C30.4378 35.3774 30.1759 35.6687 29.9124 36.1517C29.3825 37.123 28.9898 38.608 28.9898 40.3625C28.9898 42.117 29.3825 43.602 29.9124 44.5733C30.1759 45.0563 30.4378 45.3476 30.636 45.5013C30.8208 45.6445 30.9099 45.6416 30.9187 45.6416V47.7347L30.7116 47.7252C28.6551 47.534 27.0064 44.5115 26.9022 40.742L26.8967 40.3625C26.8967 36.2909 28.6975 32.9902 30.9187 32.9902C33.14 32.9902 34.9407 36.2909 34.9407 40.3625L34.9353 40.742C34.8275 44.6373 33.0706 47.7347 30.9187 47.7347V45.6416C30.9275 45.6416 31.0167 45.6445 31.2015 45.5013C31.3997 45.3476 31.6615 45.0563 31.9251 44.5733C32.455 43.602 32.8476 42.117 32.8476 40.3625Z" fill="#1F1F22"/>
<path d="M27.0636 31.6185C27.0636 32.5658 26.2957 33.3337 25.3484 33.3337C24.4011 33.3337 23.6332 32.5658 23.6332 31.6185C23.6332 30.6712 24.4011 29.9033 25.3484 29.9033C26.2957 29.9033 27.0636 30.6712 27.0636 31.6185Z" fill="#1F1F22"/>
<path d="M38.535 31.6185C38.535 32.5658 37.7671 33.3337 36.8198 33.3337C35.8725 33.3337 35.1046 32.5658 35.1046 31.6185C35.1046 30.6712 35.8725 29.9033 36.8198 29.9033C37.7671 29.9033 38.535 30.6712 38.535 31.6185Z" fill="#1F1F22"/>
</g>
<path d="M80.0238 22.0983L75.0185 21.5682C74.4776 21.511 73.9767 21.6233 73.5916 21.848C72.6438 22.4008 72.8223 23.761 72.7717 24.8571L72.0164 41.2144C71.9657 42.3105 71.899 43.554 72.7348 44.2649C73.7228 45.1052 75.402 45.3164 76.587 44.7534C77.6068 44.269 77.8727 43.0173 78.1105 41.9136L81.4644 26.3448C81.7438 25.0477 82.4904 23.4195 81.4456 22.6015C81.1275 22.3525 80.6647 22.166 80.0238 22.0983Z" fill="#1F1F22"/>
<path d="M77.1482 52.1726C77.0363 53.8871 75.5557 55.1864 73.8412 55.0745C72.1266 54.9627 70.8274 53.4821 70.9393 51.7675C71.0511 50.053 72.5317 48.7538 74.2462 48.8656C75.9608 48.9775 77.26 50.458 77.1482 52.1726Z" fill="#1F1F22"/>
</svg>
