<svg width="227" height="63" viewBox="0 0 227 63" fill="none" xmlns="http://www.w3.org/2000/svg">
<path d="M45 31.5C45 19.0736 34.9264 9 22.5 9C10.0736 9 0 19.0736 0 31.5C0 43.9264 10.0736 54 22.5 54C34.9264 54 45 43.9264 45 31.5Z" fill="#3D9EF2"/>
<path d="M22.4996 18C27.8996 18 32.3996 22.5 32.3996 27.9C32.3996 33.3 22.4996 45 22.4996 45C22.4996 45 12.5996 33.3 12.5996 27.9C12.5996 22.5 17.0996 18 22.4996 18Z" fill="white"/>
<path d="M22.4998 30.6002C23.991 30.6002 25.1998 29.3914 25.1998 27.9002C25.1998 26.409 23.991 25.2002 22.4998 25.2002C21.0086 25.2002 19.7998 26.409 19.7998 27.9002C19.7998 29.3914 21.0086 30.6002 22.4998 30.6002Z" fill="#3B1E3B"/>
<path d="M59.14 49V16.156H66.086V43.25H79.426V49H59.14ZM91.4518 23.884V49H84.5978V23.884H91.4518ZM88.0478 14.04C89.0598 14.04 89.9338 14.2853 90.6698 14.776C91.4058 15.236 91.7738 16.11 91.7738 17.398C91.7738 18.6553 91.4058 19.5293 90.6698 20.02C89.9338 20.5107 89.0598 20.756 88.0478 20.756C87.0051 20.756 86.1158 20.5107 85.3798 20.02C84.6744 19.5293 84.3218 18.6553 84.3218 17.398C84.3218 16.11 84.6744 15.236 85.3798 14.776C86.1158 14.2853 87.0051 14.04 88.0478 14.04ZM104.593 49L95.0254 23.884H102.201L107.031 38.19C107.215 38.742 107.369 39.3247 107.491 39.938C107.645 40.5513 107.752 41.1493 107.813 41.732C107.905 42.3147 107.967 42.8513 107.997 43.342H108.181C108.212 42.8207 108.273 42.2687 108.365 41.686C108.457 41.1033 108.565 40.5207 108.687 39.938C108.841 39.3247 109.009 38.742 109.193 38.19L114.023 23.884H121.199L111.631 49H104.593ZM135.153 23.424C137.484 23.424 139.477 23.8687 141.133 24.758C142.82 25.6473 144.123 26.9353 145.043 28.622C145.963 30.3087 146.423 32.3787 146.423 34.832V38.144H130.231C130.292 40.076 130.86 41.594 131.933 42.698C133.037 43.802 134.555 44.354 136.487 44.354C138.112 44.354 139.584 44.2007 140.903 43.894C142.222 43.5567 143.586 43.0507 144.997 42.376V47.666C143.77 48.2793 142.467 48.724 141.087 49C139.738 49.3067 138.097 49.46 136.165 49.46C133.65 49.46 131.427 49 129.495 48.08C127.563 47.1293 126.045 45.7033 124.941 43.802C123.837 41.9007 123.285 39.5087 123.285 36.626C123.285 33.682 123.776 31.244 124.757 29.312C125.769 27.3493 127.164 25.8773 128.943 24.896C130.722 23.9147 132.792 23.424 135.153 23.424ZM135.199 28.3C133.88 28.3 132.776 28.7293 131.887 29.588C131.028 30.4467 130.522 31.7807 130.369 33.59H139.983C139.983 32.578 139.799 31.6733 139.431 30.876C139.094 30.0787 138.572 29.45 137.867 28.99C137.162 28.53 136.272 28.3 135.199 28.3ZM161.917 49H159.249V18.548H148.669V16.156H172.497V18.548H161.917V49ZM184.57 24.114C185.183 24.114 185.766 24.16 186.318 24.252C186.901 24.3133 187.422 24.4053 187.882 24.528L187.514 26.92C187.023 26.7973 186.533 26.7053 186.042 26.644C185.551 26.552 185.015 26.506 184.432 26.506C183.328 26.506 182.331 26.7207 181.442 27.15C180.553 27.5793 179.786 28.1927 179.142 28.99C178.498 29.7873 178.007 30.738 177.67 31.842C177.333 32.946 177.164 34.188 177.164 35.568V49H174.542V24.528H176.75L177.026 29.128H177.164C177.563 28.1773 178.099 27.334 178.774 26.598C179.479 25.8313 180.323 25.2333 181.304 24.804C182.285 24.344 183.374 24.114 184.57 24.114ZM195.222 24.528V49H192.646V24.528H195.222ZM193.934 15.466C194.516 15.466 194.961 15.65 195.268 16.018C195.574 16.3553 195.728 16.8307 195.728 17.444C195.728 18.088 195.574 18.594 195.268 18.962C194.961 19.2993 194.516 19.468 193.934 19.468C193.382 19.468 192.952 19.2993 192.646 18.962C192.339 18.594 192.186 18.088 192.186 17.444C192.186 16.8307 192.339 16.3553 192.646 16.018C192.952 15.65 193.382 15.466 193.934 15.466ZM214.285 24.068C217.413 24.068 219.851 25.126 221.599 27.242C223.378 29.358 224.267 32.486 224.267 36.626C224.267 39.386 223.853 41.732 223.025 43.664C222.197 45.5653 221.016 47.0067 219.483 47.988C217.98 48.9693 216.171 49.46 214.055 49.46C212.614 49.46 211.356 49.2453 210.283 48.816C209.21 48.3867 208.32 47.8193 207.615 47.114C206.91 46.4087 206.358 45.6267 205.959 44.768H205.775C205.836 45.5347 205.882 46.378 205.913 47.298C205.944 48.1873 205.959 49.0153 205.959 49.782V59.856H203.337V24.528H205.499L205.821 29.128H205.959C206.358 28.2387 206.925 27.4107 207.661 26.644C208.397 25.8773 209.302 25.264 210.375 24.804C211.479 24.3133 212.782 24.068 214.285 24.068ZM213.917 26.322C212.108 26.322 210.62 26.7053 209.455 27.472C208.29 28.2387 207.416 29.3733 206.833 30.876C206.25 32.348 205.959 34.1727 205.959 36.35V36.81C205.959 39.11 206.235 41.042 206.787 42.606C207.37 44.1393 208.228 45.2893 209.363 46.056C210.528 46.8227 211.985 47.206 213.733 47.206C215.45 47.206 216.876 46.792 218.011 45.964C219.176 45.1053 220.05 43.894 220.633 42.33C221.246 40.7353 221.553 38.834 221.553 36.626C221.553 33.2833 220.924 30.738 219.667 28.99C218.41 27.2113 216.493 26.322 213.917 26.322Z" fill="black"/>
</svg>
